<svg xmlns="http://www.w3.org/2000/svg" version="1.1" xmlns:xlink="http://www.w3.org/1999/xlink" width="1500" height="1500" viewBox="0 0 1500 1500"><rect width="1500" height="1500" x="0" y="0" id="background" stroke="transparent" fill="#333366"></rect><svg xml:space="preserve" width="1000" height="1000" data-version="2" data-id="lg_03wEmT6ZefvoDJ47lI" viewBox="0 0 562 449" x="250" y="250"><rect width="100%" height="100%" fill="transparent"></rect><path fill="#fff" d="M172.37 310.203q-7.67 0-13.77-3.63t-9.59-10q-3.49-6.37-3.49-14.32v-6.3q0-.55.55-.55h15.48q.54 0 .54.68v6.17q0 5.07 2.88 8.22 2.88 3.15 7.4 3.15 4.11 0 7.12-3.42 3.02-3.43 3.02-7.95v-68.09q0-.55.55-.55h15.34q.55 0 .55.69l.13 67.95q0 7.53-3.63 13.9-3.63 6.38-9.65 10.21-6.03 3.84-13.43 3.84"></path><rect width="53.56" height="96.59" x="-26.78" y="-48.3" fill="none" rx="0" ry="0" transform="translate(172.8 262.4)"></rect><path fill="#fff" d="M234.7 310.203q-7.26 0-13.42-3.77-6.17-3.77-9.8-10.07-3.63-6.3-3.63-13.84l.28-68.5q0-.54.54-.54h15.35q.55 0 .55.54v68.5q0 4.66 2.94 7.88 2.95 3.22 7.19 3.22 4.39 0 7.33-3.22 2.95-3.22 2.95-7.88v-68.5q0-.54.55-.54h15.34q.55 0 .55.54l.27 68.5q0 7.68-3.63 13.98-3.63 6.3-9.72 10-6.1 3.7-13.64 3.7"></path><rect width="53.84" height="96.72" x="-26.92" y="-48.36" fill="none" rx="0" ry="0" transform="translate(235.27 262.34)"></rect><path fill="#fff" d="M273.2 308.833q-.68 0-.68-.69l.13-94.12q0-.54.55-.54h15.35q.54 0 .54.54l.14 94.12q0 .69-.55.69Z"></path><rect width="16.71" height="95.35" x="-8.36" y="-47.67" fill="none" rx="0" ry="0" transform="translate(281.38 261.66)"></rect><path fill="#fff" d="M326.49 310.203q-7.53 0-13.63-3.77-6.09-3.77-9.66-10.07-3.56-6.3-3.56-14.11l.14-42.74q0-7.54 3.49-13.77 3.5-6.24 9.59-10 6.1-3.77 13.63-3.77 7.54 0 13.57 3.7t9.59 9.93q3.56 6.23 3.56 13.91v6.3q0 .55-.55.55h-15.34q-.55 0-.55-.55v-6.3q0-4.53-2.95-7.81-2.94-3.29-7.33-3.29-4.93 0-7.53 3.35-2.6 3.36-2.6 7.75v42.74q0 5.07 2.94 8.22 2.95 3.15 7.19 3.15 4.39 0 7.33-3.49 2.95-3.5 2.95-7.88v-6.3q0-.55.55-.55h15.48q.55 0 .55.55v6.3q0 7.81-3.63 14.11t-9.66 10.07q-6.03 3.77-13.57 3.77"></path><rect width="53.71" height="98.23" x="-26.86" y="-49.12" fill="none" rx="0" ry="0" transform="translate(327 261.59)"></rect><path fill="#fff" d="M363.9 308.833q-.55 0-.55-.69l.13-94.12q0-.54.55-.54h43.98q.55 0 .55.68v15.34q0 .55-.55.55h-28.09v21.37h28.09q.55 0 .55.55l.13 15.48q0 .55-.54.55h-28.23v23.98h28.23q.54 0 .54.68v15.62q0 .55-.54.55Z"></path><rect width="45.34" height="95.35" x="-22.67" y="-47.67" fill="none" rx="0" ry="0" transform="translate(386.52 261.66)"></rect><path fill="#fff" d="M6.09 441.963q-.55 0-.55-.68l.27-94.12q0-.55.55-.55h16.71q.55 0 .96.55l12.47 18.08 12.47-18.08q.41-.55.96-.55h16.85q.54 0 .54.55l.28 94.12q0 .68-.55.68H51.57q-.55 0-.55-.68l-.14-69.87-14.38 20.82-14.25-20.82-.14 69.87q0 .68-.54.68Z"></path><rect width="62.06" height="95.35" x="-31.03" y="-47.67" fill="none" rx="0" ry="0" transform="translate(37.07 394.79)"></rect><path fill="#fff" d="M79.65 441.963q-.54 0-.54-.68l.13-94.12q0-.55.55-.55h43.98q.55 0 .55.69v15.34q0 .55-.55.55H95.68v21.37h28.09q.55 0 .55.55l.13 15.48q0 .55-.54.55H95.68v23.97h28.23q.54 0 .54.69v15.62q0 .54-.54.54Z"></path><rect width="45.34" height="95.35" x="-22.67" y="-47.67" fill="none" rx="0" ry="0" transform="translate(102.28 394.79)"></rect><path fill="#fff" d="M137.19 441.963q-.54 0-.54-.68l.27-94.12q0-.55.55-.55h27.67q7.4 0 13.63 3.63 6.24 3.63 9.94 9.73 3.7 6.1 3.7 13.77 0 5.07-1.51 9.11-1.51 4.04-3.56 6.85-2.06 2.81-3.7 4.18 7.4 8.22 7.4 19.31l.13 28.09q0 .68-.68.68h-15.48q-.55 0-.55-.41v-28.36q0-4.93-3.49-8.56-3.5-3.63-8.57-3.63h-9.04l-.14 40.28q0 .68-.54.68Zm16.17-57.4h11.78q4.25 0 7.54-3.15t3.29-7.67q0-4.39-3.22-7.54-3.22-3.15-7.61-3.15h-11.78Z"></path><rect width="55.76" height="95.35" x="-27.88" y="-47.67" fill="none" rx="0" ry="0" transform="translate(165.03 394.79)"></rect><path fill="#fff" d="M227.2 443.333q-7.53 0-13.63-3.76-6.09-3.77-9.66-10.07-3.56-6.3-3.56-14.11l.14-42.75q0-7.53 3.49-13.77 3.5-6.23 9.59-10 6.1-3.76 13.63-3.76 7.54 0 13.57 3.69 6.02 3.7 9.59 9.94 3.56 6.23 3.56 13.9v6.3q0 .55-.55.55h-15.34q-.55 0-.55-.55v-6.3q0-4.52-2.95-7.81-2.94-3.28-7.33-3.28-4.93 0-7.53 3.35-2.6 3.36-2.6 7.74v42.75q0 5.07 2.94 8.22 2.95 3.15 7.19 3.15 4.39 0 7.33-3.5 2.95-3.49 2.95-7.87v-6.31q0-.54.55-.54h15.48q.55 0 .55.54v6.31q0 7.81-3.63 14.11-3.64 6.3-9.66 10.07-6.03 3.76-13.57 3.76"></path><rect width="53.71" height="98.22" x="-26.86" y="-49.11" fill="none" rx="0" ry="0" transform="translate(227.7 394.72)"></rect><path fill="#fff" d="M264.6 441.963q-.54 0-.54-.68l.13-94.12q0-.55.69-.55h15.21q.68 0 .68.55l-.14 37.26h20.55v-37.26q0-.55.55-.55h15.21q.68 0 .68.55l.28 94.12q0 .68-.69.68h-15.34q-.69 0-.69-.68v-40.28h-20.55v40.28q0 .68-.54.68Z"></path><rect width="53.84" height="95.35" x="-26.92" y="-47.67" fill="none" rx="0" ry="0" transform="translate(291.48 394.79)"></rect><path fill="#fff" d="m324.47 441.283 16.99-94.12q.14-.55.69-.55h19.86q.55 0 .69.55l16.3 94.12q.14.68-.55.68h-15.21q-.54 0-.68-.68l-1.51-10h-18.63l-1.51 10q-.13.68-.68.68h-15.21q-.55 0-.55-.68m20.69-24.66h13.15l-5.61-38.5-.83-5.07-.54 5.07Z"></path><rect width="54.6" height="95.35" x="-27.3" y="-47.67" fill="none" rx="0" ry="0" transform="translate(352.27 394.79)"></rect><path fill="#fff" d="M388.86 441.963q-1.09 0-1.09-.95l-.14-93.3q0-1.1 1.1-1.1h12.33l23.15 53.98-.69-52.88q0-1.1 1.24-1.1h13.56q.82 0 .82 1.1l.14 93.43q0 .82-.69.82h-12.05l-23.7-50.41.96 49.32q0 1.09-1.24 1.09Z"></path><rect width="51.65" height="95.35" x="-25.82" y="-47.67" fill="none" rx="0" ry="0" transform="translate(413.95 394.79)"></rect><path fill="#fff" d="M464.9 441.963q-.55 0-.55-.68v-78.09h-17.81q-.68 0-.68-.69l.13-15.34q0-.55.55-.55h52.06q.69 0 .69.55v15.34q0 .69-.55.69h-17.95l.14 78.09q0 .68-.55.68Z"></path><rect width="53.43" height="95.35" x="-26.71" y="-47.67" fill="none" rx="0" ry="0" transform="translate(473.07 394.79)"></rect><path fill="#fff" d="M528.6 443.333q-7.39 0-13.49-3.76-6.1-3.77-9.73-10-3.63-6.24-3.63-13.77v-6.3q0-.69.69-.69h15.34q.55 0 .55.69v6.3q0 4.52 3.01 7.74 3.02 3.22 7.26 3.22 4.25 0 7.26-3.29 3.02-3.29 3.02-7.67 0-5.07-6.58-8.77-2.19-1.23-6.85-3.84-4.66-2.6-8.77-4.93-7.53-4.38-11.16-11.03-3.63-6.64-3.63-15 0-7.67 3.7-13.77 3.7-6.09 9.79-9.66 6.1-3.56 13.22-3.56 7.26 0 13.36 3.63t9.73 9.73q3.63 6.1 3.63 13.63v11.24q0 .54-.55.54h-15.34q-.55 0-.55-.54l-.14-11.24q0-4.79-3.01-7.81-3.02-3.01-7.13-3.01-4.24 0-7.26 3.22-3.01 3.22-3.01 7.6 0 4.52 1.92 7.54 1.91 3.01 6.98 5.75.69.41 2.68 1.44 1.98 1.03 4.31 2.33 2.33 1.3 4.18 2.26 1.85.96 2.26 1.23 6.85 3.84 10.82 9.39 3.98 5.54 3.98 13.63 0 7.81-3.63 14.04-3.64 6.23-9.73 9.86-6.1 3.63-13.5 3.63"></path><rect width="53.71" height="98.09" x="-26.86" y="-49.05" fill="none" rx="0" ry="0" transform="translate(529.1 394.79)"></rect><path fill="#fff" d="M247.901 163.373a25.045 25.045 0 0 1-3.297-2.769c.828.973 1.963 1.9 3.297 2.769m15.85-74.588c3.106-.059 6.29-.455 9.491-1.06-.444 2.311-.884 4.63-1.31 6.958-2.064 4.583 8.748 6.1 10.726 1.825 1.809-3.911 3.087-8.1 4.097-12.367 4.308-1.405 8.513-2.952 12.462-4.389 5.952-2.164-.698-7.081-4.887-5.493-1.976.75-3.979 1.426-5.976 2.113.318-1.733.623-3.458.925-5.165.967-5.483-12.724-6.202-13.373-.002-.022.21-.06.415-.081.625-.933-.194-2.003-.024-2.669.666a6.97 6.97 0 0 0-1.253 1.844c-.35.695-.979 1.28-1.48 1.868a28.169 28.169 0 0 0-2.515 3.426c-.232.37.606.436.792.302 1.402-1.003 2.833-1.96 4.24-2.955.774-.547 1.61-1.019 2.41-1.536a164.89 164.89 0 0 1-.873 5.547c-4.232 1.426-9.009 3.305-11.952 6.389-.752.787.595 1.415 1.226 1.404m20.516 19.961c-2.695-1.693-5.49-3.224-8.278-4.763-2.636-1.453-5.243-3.07-8.227-3.652-.698-.138-2.051.318-1.426 1.218 1.445 2.081 3.96 3.38 5.982 4.844 2.456 1.782 4.838 3.66 7.335 5.383 2.307 1.593 7.908-.96 4.614-3.03m-10.69-.194a67.579 67.579 0 0 0-3.14-1.18c-1.144-.391-2.324-.386-3.518-.47-.65-.045-1.389.593-.707 1.122.715.552 1.224 1.253 1.979 1.779.709.496 1.39 1.035 2.07 1.569 1.011.795 2.844.676 3.871 0 1.345-.882.733-2.305-.555-2.82"></path><path fill="#fff" d="M366.715 25.503c.477-.229.766-.617.542-1.145-4.321-10.141-13.562-17.648-24.409-19.648-.609-.114-1.485-.014-1.903.506-3.431 4.278-6.378 8.71-7.496 14.12a22.756 22.756 0 0 0-4.807-.485c-1.086-.65-2.868-.833-3.844-.049-2.436 1.954-3.905 4.28-3.752 7.489.138 2.854 1.733 5.35 3.248 7.73-.43.106-.824.273-1.072.567-2.74 3.218-4.801 6.7-7.22 10.175-3.126 4.489-16.027 3.068-21.631 3.753-8.915 1.086-15.47 8.973-20.859 15.3-16.51 19.387-36.682 37.13-47.666 60.51-23.932 20.199 44.976 77.561 72.417 50.678.604-.593.658-1.13.38-1.577 17.476-22.414 36.113-44.453 48.559-70.169 3.038-6.275 6.194-13.82 4.248-20.945-1.38-5.054-4.529-9.014-7.321-13.386-4.75-7.43 2.728-14.17 5.663-20.473 2.512.145 5.286-.016 7.599-.954 1.221.167 2.607-.178 3.108-1.224.44-.914.685-1.96.73-3.003 1.386-.345 2.394-1.262 1.351-2.442a199.798 199.798 0 0 0-4.9-5.362c3.595-2.674 6.68-6.17 9.035-9.966m-18.958 22.123c-.275.192-.178.461.043.596-5.51 6.858-12.737 12.335-8.553 21.578 2.37 5.238 6.984 8.718 8.157 14.621.897 4.523-.49 9.295-1.742 13.602-3.46 11.936-12.219 21.802-19.338 31.687-10.505 14.586-21.77 28.638-32.808 42.82a2.283 2.283 0 0 0-.623.407c-19.155 18.712-66.088-14.336-66.565-40.38.793 1.202 3.887 1.28 4.434-.23 5.68-15.64 19.153-25.91 27.528-39.781.337-.561-.935-.72-1.232-.472-12.076 10.149-24.99 23.967-30.676 38.954a18.934 18.934 0 0 1 1.305-6.054c14.583-21.643 32.983-39.782 49.885-59.603 4.469-5.243 8.741-10.035 15.143-13.02 5.136-2.393 15.347-.056 21.654-1.401.879-.186 1.704-.58 2.494-1.092l-.688 1.105c-.385.628-.161 1.16.361 1.54-.094 1.622-.016 3.07.327 4.488-12.063-2.758-27.522-7.882-33.957 5.75-.364.77 1.18.77 1.54.425 11.151-10.712 22.427-4.353 35.385-1.922 1.059.2 4.11-.382 3.267-2.143-1.475-3.073-1.302-4.69-.912-7.798.02-.14-.045-.248-.067-.372 2.062-3.636 4.634-7.297 5.685-11.303.194-.74-.981-.811-1.407-.539a19.958 19.958 0 0 0-2.078 1.556c1.073-1.736 2.073-3.34 3.038-4.472.808-.95.164-1.69-.852-2.046-.148-4.21-1.243-9.98 2.259-12.726a2.453 2.453 0 0 0 .558-.599c11.418 4.081 20.443 12.54 28.333 21.622-.205.207-.385.415-.58.63-2.59-3.539-5.916-6.418-9.259-9.2a38.932 38.932 0 0 1 1.747 2.69c-6.416-5.277-13.6-8.674-21.775-11.755-.267-.1-.944.21-.51.434 8.688 4.47 16.586 10.173 23.067 17.505-6.214-3.294-12.023-6.822-18.198-9.755 3.057 5.24 12.014 11.491 7.407 16.758l.297.443c-1.75 2.2-3.238 4.932-4.13 6.318-4.095 6.345-5.814 8.785-4.157 16.033.669 2.928 3.54 10.583.798 12.969-3.504 3.051-7.132-.124-10.736.518-1.248-1.125-3.251-1.78-5.47-1.197-2.44.639-4.747 1.477-6.987 2.431a48.081 48.081 0 0 0-3.52-7.998c-.423-.75-2.343-1.046-2.639 0-1.14 4.006-1.776 8.125-2.17 12.292-4.666 2.828-9.084 6.125-13.594 9.478-2.294 1.704 1.669 3.003 3.202 2.103a97.252 97.252 0 0 1 9.94-5.066c-.206 5.017-.184 10.058-.281 15.028a137.928 137.928 0 0 1-4.003 4.831c-5.232 5.998-9.947 12.203-15.052 18.287-3.882 4.626-7.837 12.31-13.513 14.731 2.056 3.52 5.96 4.222 6.332 8.942-5.106 2.598-13.35-4.731-17.436-7.532-6.423-4.399-13.887-10.939-21.88-11.154 1.485 3.186 11.58 9.046 14.796 11.842 6.162 5.358 13.06 9.391 18.034 16.154l.148.531c-5.065-.17-14.082-2.728-19.626-6.345 4.474 3.216 9.898 5.235 14.939 7.486 7.404 3.304 17.475 5.302 25.1 1.919 4.872-2.162 6.815-6.125 9.786-10.111 4.747-6.367 10.184-12.306 15.2-18.53 8.567-10.626 16.487-21.56 23.468-33.463 2.753-4.696 5.939-9.351 7.386-14.524 1.02-3.64 1.445-2.11.17-5.178-.798-1.922-3.315-1.85-3.396-4.833a41.997 41.997 0 0 0 5.261-1.027c-.903-7.006-7.965-11.503-8.687-19.269-.634-6.809 5.191-13.108 8.965-18.475a2.925 2.925 0 0 0-.92-.378c1.966-1.493 4.438-2.407 6.985-3.008.99.183 2.167-.054 2.82-.566.7-.119 1.396-.23 2.067-.329-.213.235-.39.488-.587.733a2.345 2.345 0 0 0-1.079.388c-1.337.966-2.862 1.629-4.415 2.168-1.097.383-2.25.58-3.213 1.253m-36.06 49.537a75.518 75.518 0 0 0-.633-3.108 90.725 90.725 0 0 1 3.518-1.01c-.973 1.382-1.933 2.754-2.884 4.118m35.514-71.169a1.235 1.235 0 0 0 .256-.836c-.008-.156.003-.38-.01-.544-.049-.607-.496-.925-1.011-1.157l-.032-.013a2.785 2.785 0 0 0-2.57.264c-2.862-1.784-5.852-3.221-8.957-4.06 1.221-2.353 2.64-4.563 4.132-6.741.59.652 1.83.585 2.502.2.105-.055.105-.06 0-.017 1.714-.552.06-2.102-1.167-1.817.143-.019.143-.021.002-.01-.064.002-.137.013-.212.024l.372-.537c2.752-3.927 3.485-3.846 8.127-1.949 6.359 2.599 11.483 8.063 14.47 14.198-.663-.073-1.362.1-1.66.558l-.138.21c-.464.712.156 1.162.825 1.335l.318.08a2.453 2.453 0 0 0 1.277-.123c-1.986 3.348-4.431 6.499-7.06 9.383-2.884-2.965-6.056-5.917-9.464-8.448"></path><path fill="#fff" d="m340.889 16.886-.518-.283c-.725-.394-1.666-.472-2.383 0-.604.396-.655 1.178 0 1.563l.499.294c.709.418 1.695.463 2.402 0 .59-.386.679-1.205 0-1.574m3.668-6.063c-.229-.463-1.52-.534-1.474.13.075 1.072.272 2.126.447 3.186.202 1.218 2.75.876 2.327-.208-.41-1.046-.801-2.097-1.3-3.108m4.389 4.41a21.268 21.268 0 0 1 1.237-.232c1.315-.188.337-1.58-.72-1.121-.366.159-.738.288-1.116.42-.881.31-.021 1.063.599.933m1.725 6.502c-.006-.027-.027-.046-.027-.073-.324-1.38-3.833-.951-3.248.588.083.224.186.404.337.59.401.493 1.285.639 1.873.502.461-.111.855-.24 1.16-.623.323-.402.185-.733-.095-.984m-.666-.386.046.04c-.049-.015-.094-.042-.14-.053zm6.59-4.455c.039-1.496-3.331-1.51-3.369 0-.037 1.496 3.332 1.51 3.37 0M341.63 20.2c-.03 1.18 2.628 1.192 2.658 0 .03-1.18-2.629-1.191-2.658 0m7.715-9.154-.022-.154c.245-.585-.571-1.143-1.286-1.143-.954 0-1.744.928-1.062 1.467l.016.037c.327.782 2.5.801 2.354-.207m1.768 16.333c-.035 1.377 3.073 1.39 3.105 0 .035-1.378-3.073-1.391-3.105 0m4.92-5.154a15.063 15.063 0 0 1-.187.525c-.571 1.494 2.386 1.76 3.079.852.124-.162.25-.315.38-.474 1.261-1.545-2.685-2.618-3.273-.903m-.684 7.747c-.04 1.682 3.75 1.698 3.79 0 .04-1.682-3.75-1.699-3.79 0"></path></svg></svg>